<svg xmlns="http://www.w3.org/2000/svg" width="54" height="54" viewBox="0 0 54 54">
  <path fill="#FFF" fill-rule="evenodd" d="M41.5428048,18.234095 C41.1273072,18.6495926 40.5848016,18.8564342 40.0404816,18.8564342 C39.4961616,18.8564342 38.953656,18.6495926 38.5381584,18.234095 L30.5203248,10.2180758 C29.691144,9.38708064 29.691144,8.04261024 30.5203248,7.21161504 C31.3495056,6.38243424 32.6957904,6.38243424 33.5267856,7.21161504 L41.5428048,15.2294486 C42.3738,16.0586294 42.3738,17.4049142 41.5428048,18.234095 M41.5428048,41.6507414 C41.1273072,42.066239 40.5848016,42.2730806 40.0404816,42.2730806 C39.4961616,42.2730806 38.953656,42.066239 38.5381584,41.6507414 L12.1966992,15.3092822 C11.365704,14.478287 11.365704,13.1320022 12.1966992,12.3028214 C13.02588,11.4718262 14.3703504,11.4718262 15.2013456,12.3028214 L41.5428048,38.6442806 C42.3738,39.4752758 42.3738,40.8197462 41.5428048,41.6507414 M34.1382384,46.0452182 C33.7227408,46.4607158 33.1784208,46.6675574 32.6359152,46.6675574 C32.0915952,46.6675574 31.5472752,46.4607158 31.133592,46.0452182 L20.6862768,35.597903 C19.8552816,34.7687222 19.8552816,33.4224374 20.6862768,32.5932566 C21.5154576,31.7640758 22.8617424,31.7640758 23.6909232,32.5932566 L34.1382384,43.0387574 C34.9674192,43.8697526 34.9674192,45.214223 34.1382384,46.0452182 M23.2173648,46.7419478 C22.8036816,47.155631 22.2593616,47.364287 21.7150416,47.364287 C21.1707216,47.364287 20.628216,47.155631 20.2127184,46.7419478 L12.1966992,38.7241142 C11.365704,37.8949334 11.365704,36.550463 12.1966992,35.7194678 C13.02588,34.890287 14.3721648,34.890287 15.2013456,35.7194678 L23.2173648,43.735487 C24.04836,44.5664822 24.04836,45.9109526 23.2173648,46.7419478 M19.6012656,7.90834464 C20.4304464,7.07916384 21.7767312,7.07916384 22.605912,7.90834464 L33.0532272,18.3538454 C33.8842224,19.1848406 33.8842224,20.5311254 33.0532272,21.3603062 C32.639544,21.7758038 32.0934096,21.9826454 31.550904,21.9826454 C31.006584,21.9826454 30.4640784,21.7758038 30.0485808,21.3603062 L19.6012656,10.9148054 C18.7720848,10.0838102 18.7720848,8.73933984 19.6012656,7.90834464 M41.0837616,0.24250464 L12.6557424,0.24250464 C5.741064,0.24250464 0.1363824,5.84900064 0.1363824,12.7618646 L0.1363824,41.1898838 C0.1363824,48.1045622 5.741064,53.7110582 12.6557424,53.7110582 L41.0837616,53.7110582 C47.99844,53.7110582 53.6031216,48.1045622 53.6031216,41.1898838 L53.6031216,12.7618646 C53.6031216,5.84900064 47.99844,0.24250464 41.0837616,0.24250464"/>
</svg>
