<svg width="163" height="40" viewBox="0 0 163 40" fill="none" xmlns="http://www.w3.org/2000/svg">
<mask id="mask0" mask-type="alpha" maskUnits="userSpaceOnUse" x="0" y="0" width="41" height="40">
<path d="M0 0H40.3331V40H0V0Z" fill="white"/>
</mask>
<g mask="url(#mask0)">
<path fill-rule="evenodd" clip-rule="evenodd" d="M31.2352 13.4595C30.9224 13.7711 30.5117 13.9249 30.1019 13.9249C29.6922 13.9249 29.2815 13.7711 28.9677 13.4595L22.9207 7.4614C22.2951 6.84011 22.2951 5.83328 22.9207 5.21299C23.5463 4.59171 24.5606 4.59171 25.1872 5.21299L31.2352 11.2111C31.8618 11.8313 31.8618 12.8382 31.2352 13.4595ZM31.2352 30.9772C30.9224 31.2888 30.5117 31.4437 30.1019 31.4437C29.6922 31.4437 29.2815 31.2888 28.9677 30.9772L9.09793 11.271C8.47135 10.6497 8.47135 9.64287 9.09793 9.02259C9.72352 8.40131 10.7378 8.40131 11.3644 9.02259L31.2352 28.7298C31.8618 29.3501 31.8618 30.3569 31.2352 30.9772ZM25.6489 34.2654C25.3361 34.577 24.9264 34.7309 24.5157 34.7309C24.1059 34.7309 23.6952 34.577 23.3834 34.2654L15.5017 26.4504C14.8751 25.8292 14.8751 24.8223 15.5017 24.201C16.1272 23.5808 17.1436 23.5808 17.7691 24.201L25.6489 32.017C26.2755 32.6373 26.2755 33.6441 25.6489 34.2654ZM17.4114 34.7868C17.0986 35.0964 16.6879 35.2513 16.2781 35.2513C15.8684 35.2513 15.4577 35.0964 15.1449 34.7868L9.09793 28.7887C8.47235 28.1675 8.47235 27.1616 9.09793 26.5403C9.72352 25.9201 10.7388 25.9201 11.3644 26.5403L17.4114 32.5384C18.038 33.1587 18.038 34.1645 17.4114 34.7868ZM14.6842 5.73439C15.3088 5.11411 16.3241 5.11411 16.9507 5.73439L24.8314 13.5504C25.458 14.1706 25.458 15.1775 24.8314 15.7988C24.5177 16.1084 24.1079 16.2642 23.6982 16.2642C23.2885 16.2642 22.8777 16.1084 22.564 15.7988L14.6842 7.98279C14.0576 7.36151 14.0576 6.35567 14.6842 5.73439ZM30.5616 -0.000976562H9.77148C4.37508 -0.000976562 0 4.33801 0 9.69082V30.309C0 35.6608 4.37508 39.9998 9.77148 39.9998H30.5616C35.958 39.9998 40.3331 35.6608 40.3331 30.309V9.69082C40.3331 4.33801 35.958 -0.000976562 30.5616 -0.000976562Z" fill="#2193A9"/>
</g>
<path fill-rule="evenodd" clip-rule="evenodd" d="M50.4196 14.8385C50.4196 13.5909 50.7574 12.4632 51.432 11.4574C52.1055 10.4516 53.0159 9.66448 54.1601 9.09613C55.3054 8.52979 56.5406 8.24512 57.8667 8.24512C59.2727 8.24512 60.5859 8.5218 61.804 9.07216C63.0212 9.62252 63.9366 10.4096 64.5502 11.4324C64.6961 11.6791 64.7701 11.9448 64.7701 12.2255C64.7701 12.7639 64.5722 13.2164 64.1765 13.5819C63.7777 13.9475 63.308 14.1303 62.7644 14.1303C62.3107 14.1303 61.903 14.0065 61.5412 13.7597C61.0186 13.3882 60.6248 13.1215 60.358 12.9587C60.0922 12.7949 59.7684 12.666 59.3897 12.5701C59.0099 12.4762 58.5242 12.4273 57.9356 12.4273C57.2771 12.4273 56.7024 12.5282 56.2108 12.7319C55.7171 12.9337 55.3334 13.2144 55.0615 13.574C54.7897 13.9345 54.6538 14.3441 54.6538 14.8045C54.6538 15.3439 54.8337 15.7664 55.1974 16.0701C55.5612 16.3727 56.0429 16.6094 56.6435 16.7773C57.2431 16.9461 58.1855 17.1548 59.4666 17.4015C63.5809 18.3235 65.6385 20.3431 65.6385 23.4555C65.6385 24.6921 65.2977 25.8248 64.6172 26.8536C63.9366 27.8834 63.0002 28.6975 61.804 29.2998C60.6068 29.9001 59.2777 30.2007 57.8157 30.2007C56.6825 30.2007 55.6052 30.013 54.5859 29.6354C53.5645 29.2598 52.6791 28.7514 51.9256 28.1101C51.1711 27.4699 50.6065 26.7617 50.2328 25.9846C50.0519 25.5931 49.9609 25.2215 49.9609 24.8719C49.9609 24.5243 50.0569 24.1947 50.2487 23.886C50.4416 23.5764 50.6934 23.3267 51.0072 23.1359C51.317 22.9441 51.6498 22.8492 52.0006 22.8492C52.6362 22.8492 53.2877 23.2598 53.9563 24.0798C54.433 24.7211 54.9996 25.2035 55.6561 25.5301C56.3137 25.8558 57.0852 26.0186 57.9696 26.0186C58.5592 26.0186 59.1188 25.9247 59.6525 25.7319C60.1851 25.5411 60.6158 25.2714 60.9446 24.9238C61.2734 24.5742 61.4373 24.1637 61.4373 23.6913C61.4373 23.1419 61.2814 22.7174 60.9716 22.4187C60.6578 22.1211 60.309 21.9153 59.9253 21.8044C59.5386 21.6906 58.9439 21.5617 58.1405 21.4149C52.9929 20.5269 50.4196 18.3345 50.4196 14.8385ZM80.4748 15.176C81.716 15.8952 82.6993 16.874 83.4248 18.1106C84.1493 19.3472 84.5131 20.6906 84.5131 22.141C84.5131 23.5913 84.1493 24.9317 83.4248 26.1623C82.6993 27.3929 81.716 28.3688 80.4748 29.0879C79.2336 29.8071 77.8805 30.1677 76.4185 30.1677C74.9685 30.1677 73.6194 29.8051 72.3722 29.0799C71.126 28.3538 70.1357 27.3799 69.4052 26.1543C68.6727 24.9287 68.3089 23.5913 68.3089 22.141C68.3089 20.6906 68.6727 19.3502 69.4052 18.1186C70.1357 16.888 71.126 15.9092 72.3722 15.184C73.6194 14.4598 74.9685 14.0973 76.4185 14.0973C77.8805 14.0973 79.2336 14.4568 80.4748 15.176ZM78.3662 25.4541C78.9598 25.1115 79.4315 24.6461 79.7773 24.0617C80.122 23.4784 80.2949 22.8381 80.2949 22.141C80.2949 21.4428 80.122 20.8005 79.7773 20.2102C79.4315 19.6199 78.9628 19.1544 78.3732 18.8178C77.7846 18.4812 77.134 18.3124 76.4185 18.3124C75.717 18.3124 75.0704 18.4842 74.4808 18.8268C73.8912 19.1704 73.4195 19.6339 73.0697 20.2182C72.717 20.8025 72.5431 21.4428 72.5431 22.141C72.5431 22.8381 72.717 23.4784 73.0697 24.0617C73.4195 24.6461 73.8912 25.1115 74.4808 25.4541C75.0704 25.7967 75.717 25.9685 76.4185 25.9685C77.122 25.9685 77.7716 25.7967 78.3662 25.4541ZM98.1408 15.176C99.381 15.8952 100.365 16.874 101.09 18.1106C101.816 19.3472 102.179 20.6906 102.179 22.141C102.179 23.5913 101.816 24.9317 101.09 26.1623C100.365 27.3929 99.381 28.3688 98.1408 29.0879C96.8996 29.8071 95.5465 30.1677 94.0845 30.1677C92.6335 30.1677 91.2854 29.8051 90.0382 29.0799C88.792 28.3538 87.8017 27.3799 87.0712 26.1543C86.3387 24.9287 85.9739 23.5913 85.9739 22.141C85.9739 20.6906 86.3387 19.3502 87.0712 18.1186C87.8017 16.888 88.792 15.9092 90.0382 15.184C91.2854 14.4598 92.6335 14.0973 94.0845 14.0973C95.5465 14.0973 96.8996 14.4568 98.1408 15.176ZM96.0322 25.4541C96.6258 25.1115 97.0965 24.6461 97.4433 24.0617C97.788 23.4784 97.9609 22.8381 97.9609 22.141C97.9609 21.4428 97.788 20.8005 97.4433 20.2102C97.0965 19.6199 96.6288 19.1544 96.0392 18.8178C95.4506 18.4812 94.799 18.3124 94.0845 18.3124C93.382 18.3124 92.7364 18.4842 92.1468 18.8268C91.5562 19.1704 91.0855 19.6339 90.7358 20.2182C90.383 20.8025 90.2091 21.4428 90.2091 22.141C90.2091 22.8381 90.383 23.4784 90.7358 24.0617C91.0855 24.6461 91.5562 25.1115 92.1468 25.4541C92.7364 25.7967 93.382 25.9685 94.0845 25.9685C94.7881 25.9685 95.4376 25.7967 96.0322 25.4541ZM105.936 10.454C105.936 9.86964 106.14 9.3812 106.548 8.98666C106.957 8.59411 107.455 8.39634 108.045 8.39634C108.634 8.39634 109.132 8.59411 109.541 8.98666C109.95 9.3812 110.155 9.86964 110.155 10.454V14.1307H111.088C111.678 14.1307 112.176 14.3315 112.584 14.729C112.994 15.1296 113.198 15.62 113.198 16.2053C113.198 16.7906 112.994 17.2871 112.584 17.6966C112.176 18.1071 111.678 18.3119 111.088 18.3119H110.155V27.9238C110.155 28.5091 109.95 28.9975 109.541 29.3911C109.132 29.7856 108.634 29.9824 108.045 29.9824C107.455 29.9824 106.957 29.7856 106.548 29.3911C106.14 28.9975 105.936 28.5091 105.936 27.9238V18.3119H105.137C104.751 18.3119 104.397 18.217 104.076 18.0252C103.751 17.8354 103.497 17.5797 103.309 17.2581C103.123 16.9385 103.028 16.5879 103.028 16.2053C103.028 15.62 103.232 15.1296 103.641 14.729C104.049 14.3315 104.547 14.1307 105.137 14.1307H105.936V10.454ZM123.569 18.4984C123.171 18.3745 122.747 18.3116 122.294 18.3116C121.613 18.3116 120.982 18.4864 120.398 18.836C119.814 19.1846 119.349 19.65 119.004 20.2344C118.657 20.8187 118.486 21.4549 118.486 22.1402C118.486 22.8144 118.657 23.4416 119.004 24.02C119.349 24.5993 119.817 25.0598 120.407 25.4034C120.996 25.747 121.63 25.9178 122.311 25.9178C122.776 25.9178 123.203 25.8579 123.593 25.741C123.986 25.6231 124.38 25.4064 124.776 25.0917C125.127 24.8221 125.451 24.6073 125.746 24.4515C126.041 24.2937 126.352 24.2148 126.681 24.2148C127.043 24.2148 127.386 24.3096 127.709 24.5014C128.032 24.6922 128.293 24.9489 128.492 25.2675C128.69 25.5892 128.789 25.9238 128.789 26.2714C128.789 26.576 128.724 26.8767 128.593 27.1743C128.462 27.472 128.273 27.7457 128.024 27.9924C127.321 28.6896 126.485 29.225 125.516 29.6015C124.548 29.9781 123.523 30.1679 122.447 30.1679C120.939 30.1679 119.552 29.8163 118.29 29.1141C117.026 28.4109 116.022 27.45 115.28 26.2294C114.538 25.0108 114.166 23.6584 114.166 22.1741C114.166 20.6898 114.538 19.3304 115.28 18.0938C116.022 16.8563 117.026 15.8764 118.29 15.1502C119.552 14.4261 120.939 14.0635 122.447 14.0635C123.523 14.0635 124.548 14.2523 125.516 14.6288C126.485 15.0054 127.321 15.5418 128.024 16.238C128.273 16.4977 128.462 16.7744 128.593 17.072C128.724 17.3717 128.789 17.6723 128.789 17.975C128.789 18.3236 128.69 18.6582 128.492 18.9778C128.293 19.2994 128.032 19.5551 127.709 19.7459C127.386 19.9367 127.048 20.0316 126.698 20.0316C126.369 20.0316 126.051 19.9517 125.746 19.7889C125.439 19.6251 125.117 19.4093 124.776 19.1396C124.369 18.836 123.965 18.6222 123.569 18.4984ZM134.841 29.3745C134.434 29.779 133.941 29.9818 133.363 29.9818C132.773 29.9818 132.272 29.779 131.858 29.3745C131.444 28.971 131.237 28.4805 131.237 27.9072V10.5043C131.237 10.1237 131.333 9.76816 131.527 9.44253C131.718 9.11691 131.977 8.86021 132.3 8.67542C132.622 8.48963 132.977 8.39674 133.363 8.39674C133.941 8.39674 134.434 8.6025 134.841 9.01203C135.249 9.42256 135.454 9.91998 135.454 10.5043V15.5135C136.645 14.5696 137.874 14.0962 139.144 14.0962C140.446 14.0962 141.611 14.4428 142.638 15.134C143.663 15.8262 144.467 16.7671 145.043 17.9577C145.622 19.1513 145.911 20.4658 145.911 21.9041V27.9761C145.911 28.5484 145.703 29.0319 145.29 29.4254C144.876 29.819 144.382 30.0167 143.803 30.0167C143.225 30.0167 142.732 29.819 142.323 29.4254C141.915 29.0319 141.71 28.5484 141.71 27.9761V21.9041C141.699 21.2189 141.568 20.5976 141.32 20.0403C141.07 19.4859 140.72 19.0464 140.266 18.7258C139.813 18.4062 139.279 18.2454 138.666 18.2454C138.044 18.2454 137.488 18.3962 137 18.6998C136.514 19.0035 136.133 19.428 135.861 19.9734C135.589 20.5187 135.454 21.128 135.454 21.8032V27.9072C135.454 28.4805 135.249 28.971 134.841 29.3745ZM150.876 33.0343L153.155 28.025L148.036 17.0477C147.911 16.789 147.849 16.5024 147.849 16.1877C147.849 15.8062 147.942 15.4536 148.13 15.134C148.316 14.8143 148.571 14.5586 148.895 14.3668C149.218 14.1761 149.566 14.0792 149.94 14.0792C150.35 14.0792 150.725 14.193 151.072 14.4168C151.418 14.6425 151.681 14.9512 151.862 15.3447L155.398 23.1357L158.953 15.3447C159.135 14.9622 159.396 14.6595 159.743 14.4348C160.089 14.208 160.466 14.0972 160.874 14.0972C161.248 14.0972 161.598 14.193 161.929 14.3838C162.258 14.5756 162.517 14.8293 162.711 15.1509C162.903 15.4716 162.999 15.8172 162.999 16.1877C162.999 16.4804 162.931 16.7731 162.795 17.0647L154.532 34.7033C154.35 35.0859 154.084 35.3885 153.732 35.6143C153.381 35.839 153.002 35.9519 152.594 35.9519C152.049 35.9519 151.587 35.7751 151.208 35.4205C150.828 35.0669 150.638 34.6194 150.638 34.08C150.638 33.7095 150.717 33.3599 150.876 33.0343Z" fill="#2193A9"/>
</svg>
